<svg xmlns="http://www.w3.org/2000/svg" xmlns:xlink="http://www.w3.org/1999/xlink" width="40" zoomAndPan="magnify" viewBox="0 0 30 30.000001" height="40" preserveAspectRatio="xMidYMid meet" version="1.0"><defs><clipPath id="39c368a7d3"><path d="M 1.101562 0.617188 L 28.679688 0.617188 L 28.679688 28.199219 L 1.101562 28.199219 Z M 1.101562 0.617188 " clip-rule="nonzero"/></clipPath></defs><g clip-path="url(#39c368a7d3)"><path fill="#000000" d="M 28.679688 3.285156 L 28.679688 0.617188 L 26.011719 0.617188 L 26.011719 1.507812 L 3.769531 1.507812 L 3.769531 0.617188 L 1.101562 0.617188 L 1.101562 3.285156 L 3.769531 3.285156 L 3.769531 2.394531 L 10.277344 2.394531 C 5.816406 4.179688 2.625 8.472656 2.445312 13.515625 L 1.546875 13.515625 L 1.546875 16.1875 L 4.214844 16.1875 L 4.214844 13.515625 L 3.335938 13.515625 C 3.5625 7.5625 8.3125 2.746094 14.242188 2.414062 L 11.304688 5.355469 L 11.570312 7.09375 C 8.488281 8.417969 6.4375 11.484375 6.4375 14.851562 C 6.4375 17.597656 7.765625 20.15625 9.996094 21.742188 L 9.996094 21.96875 L 9.109375 21.96875 L 9.109375 22.859375 L 9.996094 22.859375 L 9.996094 23.75 L 9.109375 23.75 L 9.109375 24.640625 L 9.996094 24.640625 L 9.996094 25.527344 L 9.109375 25.527344 L 9.109375 26.417969 L 9.996094 26.417969 L 9.996094 28.199219 L 19.785156 28.199219 L 19.785156 26.417969 L 20.675781 26.417969 L 20.675781 25.527344 L 19.785156 25.527344 L 19.785156 24.640625 L 20.675781 24.640625 L 20.675781 23.75 L 19.785156 23.75 L 19.785156 22.859375 L 20.675781 22.859375 L 20.675781 21.96875 L 19.785156 21.96875 L 19.785156 21.742188 C 22.019531 20.15625 23.34375 17.597656 23.34375 14.851562 C 23.34375 11.484375 21.292969 8.417969 18.210938 7.09375 L 18.480469 5.355469 L 15.539062 2.414062 C 21.46875 2.746094 26.21875 7.5625 26.445312 13.515625 L 25.566406 13.515625 L 25.566406 16.1875 L 28.238281 16.1875 L 28.238281 13.515625 L 27.335938 13.515625 C 27.15625 8.472656 23.964844 4.179688 19.503906 2.394531 L 26.011719 2.394531 L 26.011719 3.285156 Z M 26.902344 1.507812 L 27.792969 1.507812 L 27.792969 2.394531 L 26.902344 2.394531 Z M 2.878906 2.394531 L 1.992188 2.394531 L 1.992188 1.507812 L 2.878906 1.507812 Z M 3.324219 15.296875 L 2.433594 15.296875 L 2.433594 14.40625 L 3.324219 14.40625 Z M 18.894531 27.308594 L 10.886719 27.308594 L 10.886719 26.417969 L 18.894531 26.417969 Z M 18.894531 25.527344 L 10.886719 25.527344 L 10.886719 24.640625 L 18.894531 24.640625 Z M 18.894531 23.75 L 10.886719 23.75 L 10.886719 22.859375 L 18.894531 22.859375 Z M 18.070312 8 C 20.714844 9.230469 22.453125 11.917969 22.453125 14.851562 C 22.453125 17.378906 21.195312 19.730469 19.09375 21.140625 L 18.894531 21.273438 L 18.894531 21.96875 L 15.335938 21.96875 L 15.335938 21.078125 L 14.445312 21.078125 L 14.445312 21.96875 L 10.886719 21.96875 L 10.886719 21.273438 L 10.691406 21.140625 C 8.585938 19.730469 7.328125 17.378906 7.328125 14.851562 C 7.328125 11.917969 9.070312 9.230469 11.710938 8 L 12.148438 10.847656 L 11.332031 10.847656 L 11.332031 11.738281 L 18.449219 11.738281 L 18.449219 10.847656 L 17.632812 10.847656 Z M 17.53125 5.664062 L 16.734375 10.847656 L 13.050781 10.847656 L 12.25 5.664062 L 14.445312 3.46875 L 14.445312 6.019531 C 13.679688 6.21875 13.113281 6.90625 13.113281 7.734375 C 13.113281 8.714844 13.910156 9.515625 14.890625 9.515625 C 15.871094 9.515625 16.671875 8.714844 16.671875 7.734375 C 16.671875 6.90625 16.101562 6.21875 15.335938 6.019531 L 15.335938 3.46875 Z M 14.890625 6.84375 C 15.382812 6.84375 15.78125 7.242188 15.78125 7.734375 C 15.78125 8.226562 15.382812 8.625 14.890625 8.625 C 14.402344 8.625 14 8.226562 14 7.734375 C 14 7.242188 14.402344 6.84375 14.890625 6.84375 Z M 26.457031 14.40625 L 27.347656 14.40625 L 27.347656 15.296875 L 26.457031 15.296875 Z M 26.457031 14.40625 " fill-opacity="1" fill-rule="nonzero"/></g><path fill="#000000" d="M 14.890625 13.074219 C 13.664062 13.074219 12.667969 14.070312 12.667969 15.296875 C 12.667969 16.371094 13.433594 17.269531 14.445312 17.476562 L 14.445312 20.191406 L 15.335938 20.191406 L 15.335938 17.476562 C 16.351562 17.269531 17.117188 16.371094 17.117188 15.296875 C 17.117188 14.070312 16.117188 13.074219 14.890625 13.074219 Z M 14.890625 16.632812 C 14.15625 16.632812 13.554688 16.03125 13.554688 15.296875 C 13.554688 14.5625 14.15625 13.960938 14.890625 13.960938 C 15.625 13.960938 16.226562 14.5625 16.226562 15.296875 C 16.226562 16.03125 15.625 16.632812 14.890625 16.632812 Z M 14.890625 16.632812 " fill-opacity="1" fill-rule="nonzero"/></svg>